<mxfile host="app.diagrams.net" modified="2021-05-19T13:06:13.263Z" agent="5.0 (Windows NT 10.0; WOW64) AppleWebKit/537.36 (KHTML, like Gecko) Chrome/86.0.4240.198 Safari/537.36" etag="uunXK7OdBA7q6WGX7f08" version="14.6.12" type="github">
  <diagram id="12bKeqMDI-2RTw7QtdX4" name="Page-1">
    <mxGraphModel dx="1185" dy="634" grid="1" gridSize="10" guides="1" tooltips="1" connect="1" arrows="1" fold="1" page="1" pageScale="1" pageWidth="827" pageHeight="1169" math="0" shadow="0">
      <root>
        <mxCell id="0" />
        <mxCell id="1" parent="0" />
        <mxCell id="8udzAKhZFIz63xqEFnLd-36" value="" style="rounded=1;whiteSpace=wrap;html=1;" vertex="1" parent="1">
          <mxGeometry x="239" y="241" width="216" height="40" as="geometry" />
        </mxCell>
        <mxCell id="8udzAKhZFIz63xqEFnLd-35" value="" style="rounded=1;whiteSpace=wrap;html=1;" vertex="1" parent="1">
          <mxGeometry x="236" y="244" width="216" height="40" as="geometry" />
        </mxCell>
        <mxCell id="8udzAKhZFIz63xqEFnLd-33" value="" style="rounded=1;whiteSpace=wrap;html=1;" vertex="1" parent="1">
          <mxGeometry x="233" y="247" width="216" height="40" as="geometry" />
        </mxCell>
        <mxCell id="8udzAKhZFIz63xqEFnLd-4" style="edgeStyle=orthogonalEdgeStyle;rounded=0;orthogonalLoop=1;jettySize=auto;html=1;exitX=0.5;exitY=1;exitDx=0;exitDy=0;entryX=0.5;entryY=0;entryDx=0;entryDy=0;" edge="1" parent="1" source="8udzAKhZFIz63xqEFnLd-1" target="8udzAKhZFIz63xqEFnLd-20">
          <mxGeometry relative="1" as="geometry" />
        </mxCell>
        <mxCell id="8udzAKhZFIz63xqEFnLd-1" value="CNN-10" style="rounded=0;whiteSpace=wrap;html=1;strokeColor=none;fillColor=#CFCFCF;" vertex="1" parent="1">
          <mxGeometry x="436" y="20" width="240" height="40" as="geometry" />
        </mxCell>
        <mxCell id="8udzAKhZFIz63xqEFnLd-3" value="Dense" style="rounded=0;whiteSpace=wrap;html=1;strokeColor=none;fillColor=#CFCFCF;" vertex="1" parent="1">
          <mxGeometry x="436" y="390" width="240" height="40" as="geometry" />
        </mxCell>
        <mxCell id="8udzAKhZFIz63xqEFnLd-32" style="edgeStyle=orthogonalEdgeStyle;rounded=0;jumpSize=0;orthogonalLoop=1;jettySize=auto;html=1;exitX=0.5;exitY=1;exitDx=0;exitDy=0;entryX=0.5;entryY=0;entryDx=0;entryDy=0;" edge="1" parent="1" source="8udzAKhZFIz63xqEFnLd-6" target="8udzAKhZFIz63xqEFnLd-31">
          <mxGeometry relative="1" as="geometry" />
        </mxCell>
        <mxCell id="8udzAKhZFIz63xqEFnLd-6" value="" style="rounded=1;whiteSpace=wrap;html=1;fillColor=none;" vertex="1" parent="1">
          <mxGeometry x="230" y="110" width="216" height="40" as="geometry" />
        </mxCell>
        <mxCell id="8udzAKhZFIz63xqEFnLd-8" value="" style="endArrow=classic;html=1;entryX=0.5;entryY=0;entryDx=0;entryDy=0;jumpSize=0;rounded=0;" edge="1" parent="1" target="8udzAKhZFIz63xqEFnLd-6">
          <mxGeometry width="50" height="50" relative="1" as="geometry">
            <mxPoint x="556" y="80" as="sourcePoint" />
            <mxPoint x="616" y="120" as="targetPoint" />
            <Array as="points">
              <mxPoint x="338" y="80" />
            </Array>
          </mxGeometry>
        </mxCell>
        <mxCell id="8udzAKhZFIz63xqEFnLd-9" value="" style="rounded=1;whiteSpace=wrap;html=1;fillColor=#dae8fc;strokeColor=#6c8ebf;" vertex="1" parent="1">
          <mxGeometry x="240" y="115" width="20" height="30" as="geometry" />
        </mxCell>
        <mxCell id="8udzAKhZFIz63xqEFnLd-11" value="" style="rounded=1;whiteSpace=wrap;html=1;fillColor=#dae8fc;strokeColor=#6c8ebf;" vertex="1" parent="1">
          <mxGeometry x="270" y="115" width="20" height="30" as="geometry" />
        </mxCell>
        <mxCell id="8udzAKhZFIz63xqEFnLd-12" value="" style="rounded=1;whiteSpace=wrap;html=1;fillColor=#dae8fc;strokeColor=#6c8ebf;" vertex="1" parent="1">
          <mxGeometry x="300" y="115" width="20" height="30" as="geometry" />
        </mxCell>
        <mxCell id="8udzAKhZFIz63xqEFnLd-14" value="" style="rounded=1;whiteSpace=wrap;html=1;fillColor=#dae8fc;strokeColor=#6c8ebf;" vertex="1" parent="1">
          <mxGeometry x="330" y="115" width="20" height="30" as="geometry" />
        </mxCell>
        <mxCell id="8udzAKhZFIz63xqEFnLd-15" value="" style="rounded=1;whiteSpace=wrap;html=1;fillColor=#dae8fc;strokeColor=#6c8ebf;" vertex="1" parent="1">
          <mxGeometry x="360" y="115" width="20" height="30" as="geometry" />
        </mxCell>
        <mxCell id="8udzAKhZFIz63xqEFnLd-16" value="" style="rounded=1;whiteSpace=wrap;html=1;fillColor=#dae8fc;strokeColor=#6c8ebf;" vertex="1" parent="1">
          <mxGeometry x="390" y="115" width="20" height="30" as="geometry" />
        </mxCell>
        <mxCell id="8udzAKhZFIz63xqEFnLd-17" value="" style="rounded=1;whiteSpace=wrap;html=1;fillColor=#dae8fc;strokeColor=#6c8ebf;" vertex="1" parent="1">
          <mxGeometry x="420" y="115" width="20" height="30" as="geometry" />
        </mxCell>
        <mxCell id="8udzAKhZFIz63xqEFnLd-21" style="edgeStyle=orthogonalEdgeStyle;rounded=0;jumpSize=0;orthogonalLoop=1;jettySize=auto;html=1;entryX=0.5;entryY=0;entryDx=0;entryDy=0;" edge="1" parent="1" source="8udzAKhZFIz63xqEFnLd-20" target="8udzAKhZFIz63xqEFnLd-3">
          <mxGeometry relative="1" as="geometry" />
        </mxCell>
        <mxCell id="8udzAKhZFIz63xqEFnLd-20" value="X" style="ellipse;whiteSpace=wrap;html=1;aspect=fixed;rounded=1;strokeColor=#000000;fillColor=#CFCFCF;gradientColor=none;" vertex="1" parent="1">
          <mxGeometry x="536" y="320" width="40" height="40" as="geometry" />
        </mxCell>
        <mxCell id="8udzAKhZFIz63xqEFnLd-40" style="edgeStyle=orthogonalEdgeStyle;rounded=0;jumpSize=0;orthogonalLoop=1;jettySize=auto;html=1;entryX=0.5;entryY=0;entryDx=0;entryDy=0;" edge="1" parent="1" source="8udzAKhZFIz63xqEFnLd-22" target="8udzAKhZFIz63xqEFnLd-39">
          <mxGeometry relative="1" as="geometry" />
        </mxCell>
        <mxCell id="8udzAKhZFIz63xqEFnLd-22" value="" style="rounded=1;whiteSpace=wrap;html=1;" vertex="1" parent="1">
          <mxGeometry x="230" y="250" width="216" height="40" as="geometry" />
        </mxCell>
        <mxCell id="8udzAKhZFIz63xqEFnLd-23" value="" style="rounded=1;whiteSpace=wrap;html=1;fillColor=#dae8fc;strokeColor=#6c8ebf;" vertex="1" parent="1">
          <mxGeometry x="240" y="255" width="20" height="30" as="geometry" />
        </mxCell>
        <mxCell id="8udzAKhZFIz63xqEFnLd-24" value="" style="rounded=1;whiteSpace=wrap;html=1;fillColor=#dae8fc;strokeColor=#6c8ebf;" vertex="1" parent="1">
          <mxGeometry x="270" y="255" width="20" height="30" as="geometry" />
        </mxCell>
        <mxCell id="8udzAKhZFIz63xqEFnLd-25" value="" style="rounded=1;whiteSpace=wrap;html=1;fillColor=#dae8fc;strokeColor=#6c8ebf;" vertex="1" parent="1">
          <mxGeometry x="300" y="255" width="20" height="30" as="geometry" />
        </mxCell>
        <mxCell id="8udzAKhZFIz63xqEFnLd-26" value="" style="rounded=1;whiteSpace=wrap;html=1;fillColor=#dae8fc;strokeColor=#6c8ebf;" vertex="1" parent="1">
          <mxGeometry x="330" y="255" width="20" height="30" as="geometry" />
        </mxCell>
        <mxCell id="8udzAKhZFIz63xqEFnLd-27" value="" style="rounded=1;whiteSpace=wrap;html=1;fillColor=#dae8fc;strokeColor=#6c8ebf;" vertex="1" parent="1">
          <mxGeometry x="360" y="255" width="20" height="30" as="geometry" />
        </mxCell>
        <mxCell id="8udzAKhZFIz63xqEFnLd-28" value="" style="rounded=1;whiteSpace=wrap;html=1;fillColor=#dae8fc;strokeColor=#6c8ebf;" vertex="1" parent="1">
          <mxGeometry x="390" y="255" width="20" height="30" as="geometry" />
        </mxCell>
        <mxCell id="8udzAKhZFIz63xqEFnLd-29" value="" style="rounded=1;whiteSpace=wrap;html=1;fillColor=#dae8fc;strokeColor=#6c8ebf;" vertex="1" parent="1">
          <mxGeometry x="420" y="255" width="20" height="30" as="geometry" />
        </mxCell>
        <mxCell id="8udzAKhZFIz63xqEFnLd-38" style="edgeStyle=orthogonalEdgeStyle;rounded=0;jumpSize=0;orthogonalLoop=1;jettySize=auto;html=1;entryX=0.5;entryY=0;entryDx=0;entryDy=0;" edge="1" parent="1" source="8udzAKhZFIz63xqEFnLd-31" target="8udzAKhZFIz63xqEFnLd-22">
          <mxGeometry relative="1" as="geometry" />
        </mxCell>
        <mxCell id="8udzAKhZFIz63xqEFnLd-31" value="tanh" style="rounded=1;whiteSpace=wrap;html=1;fillColor=none;" vertex="1" parent="1">
          <mxGeometry x="288" y="180" width="100" height="40" as="geometry" />
        </mxCell>
        <mxCell id="8udzAKhZFIz63xqEFnLd-41" style="edgeStyle=orthogonalEdgeStyle;rounded=0;jumpSize=0;orthogonalLoop=1;jettySize=auto;html=1;exitX=1;exitY=0.5;exitDx=0;exitDy=0;" edge="1" parent="1" source="8udzAKhZFIz63xqEFnLd-39" target="8udzAKhZFIz63xqEFnLd-20">
          <mxGeometry relative="1" as="geometry" />
        </mxCell>
        <mxCell id="8udzAKhZFIz63xqEFnLd-39" value="Softmax" style="rounded=1;whiteSpace=wrap;html=1;fillColor=none;" vertex="1" parent="1">
          <mxGeometry x="288" y="320" width="100" height="40" as="geometry" />
        </mxCell>
      </root>
    </mxGraphModel>
  </diagram>
</mxfile>
